<svg xmlns="http://www.w3.org/2000/svg" width="156.163" height="25.815" viewBox="0 0 156.163 25.815">
  <g id="Group_2544" data-name="Group 2544" transform="translate(-1114 -292)">
    <g id="Group_2543" data-name="Group 2543" transform="translate(1114 292)">
      <g id="Group_2541" data-name="Group 2541" transform="translate(32.721 1.386)">
        <path id="Path_3521" data-name="Path 3521" d="M334.164,185.2a1.39,1.39,0,0,0,.99-.409,1.4,1.4,0,0,0,0-1.983,1.4,1.4,0,1,0-.99,2.392m-1.171-1.4a1.175,1.175,0,1,1,.345.825,1.157,1.157,0,0,1-.345-.825" transform="translate(-212.125 -167.367)" fill="#fff"/>
        <path id="Path_3522" data-name="Path 3522" d="M335.678,185.053l-.044-.068-.012-.119-.011-.2a.374.374,0,0,0-.054-.21l-.094-.075.117-.113a.418.418,0,0,0,.061-.239.381.381,0,0,0-.228-.383.711.711,0,0,0-.3-.054h-.725v1.563h.27v-.641h.427l.168.025a.19.19,0,0,1,.09.165l.007.252.011.121.022.06.011.018h.3v-.09Zm-.311-1a.2.2,0,0,1-.069.178.364.364,0,0,1-.2.048h-.433v-.441h.46l.152.028a.191.191,0,0,1,.1.187" transform="translate(-212.95 -167.97)" fill="#fff"/>
        <path id="Path_3523" data-name="Path 3523" d="M96.248,151.979l-7.583,0-.056.05v17.729l.056.052h3.071l.054-.052v-15.8l.021-.028,3.512-.006c1.281,0,1.982,1.287,1.982,3.634s-.7,3.632-1.982,3.632l-2.112,0-.055.055v1.838l.055.057h3.037a3.883,3.883,0,0,0,2.868-1.35,6.224,6.224,0,0,0,1.373-4.217c0-3.4-1.666-5.589-4.241-5.589" transform="translate(-88.61 -151.977)" fill="#fff"/>
        <path id="Path_3524" data-name="Path 3524" d="M119.6,151.977h-3.071l-.054.05v17.73l.054.052H119.6l.056-.052v-17.73Z" transform="translate(-102.709 -151.977)" fill="#fff"/>
        <path id="Path_3525" data-name="Path 3525" d="M138.614,160.647l-.06-.057h-5.481c-4.9,0-5.532,3.612-5.532,6.775l.005,2.739c0,2.353,1.461,4.063,3.48,4.063h2.983l.055-.052v-1.838l-.055-.053h-2.134c-.5-.01-1.155-.218-1.157-1.9v-2.956a8.672,8.672,0,0,1,.592-3.931,1.79,1.79,0,0,1,1.759-.9h2.341l.022.027v11.55l.05.052h3.071l.056-.052V160.647Z" transform="translate(-108.306 -156.334)" fill="#fff"/>
        <path id="Path_3526" data-name="Path 3526" d="M187.989,159.4l-1.516-.116c-1.129-.1-1.977-.724-1.977-2.592,0-2.173.982-2.761,2.275-2.761h4.188l.055-.055v-1.846l-.055-.05h-4.62c-2.861,0-4.9,1.679-4.9,5.027v.138c0,2.653,1.626,4.556,4.046,4.738L187,162c1.142.089,1.853,1.109,1.853,2.672v.44c0,.98-.237,2.759-2.326,2.759h-4.35l-.056.052v1.838l.056.052h5.393c1.671,0,4.463-.674,4.463-5.209a6.024,6.024,0,0,0-1.132-3.862,3.917,3.917,0,0,0-2.912-1.339" transform="translate(-135.572 -151.977)" fill="#fff"/>
        <path id="Path_3527" data-name="Path 3527" d="M234.318,160.647l-.055-.057h-5.481c-4.9,0-5.531,3.612-5.531,6.775V170.1c0,2.353,1.464,4.063,3.481,4.063h2.986l.054-.052v-1.838l-.054-.053h-2.133c-.5-.01-1.155-.218-1.155-1.9v-2.956a8.673,8.673,0,0,1,.588-3.931,1.794,1.794,0,0,1,1.76-.9h2.344l.018.027,0,11.55.053.052h3.075l.056-.052Z" transform="translate(-156.725 -156.334)" fill="#fff"/>
        <path id="Path_3528" data-name="Path 3528" d="M213.969,158.232h-3.323l-.023-.017v-2.23l-.05-.056H207.5l-.052.056v11.765c0,2.352,1.461,4.059,3.483,4.059h2.2l.052-.052v-1.838l-.052-.053h-1.354c-.347-.01-1.155-.025-1.155-1.762v-7.909l.023-.02c1.01,0,3.323,0,3.323,0l.055-.055v-1.83Z" transform="translate(-148.728 -153.976)" fill="#fff"/>
        <path id="Path_3529" data-name="Path 3529" d="M257.386,158.232h-3.323l-.017-.017v-2.23l-.056-.056h-3.07l-.057.056v11.765c0,2.352,1.466,4.059,3.487,4.059h2.2l.057-.052v-1.838l-.057-.053h-1.357c-.337-.01-1.144-.025-1.147-1.762v-7.909l.017-.02c1.019,0,3.326,0,3.326,0l.053-.055v-1.83Z" transform="translate(-170.692 -153.976)" fill="#fff"/>
        <path id="Path_3530" data-name="Path 3530" d="M271.149,160.59h-3.073l-.053.057v13.467l.053.052h3.073l.055-.052V160.647Z" transform="translate(-179.375 -156.334)" fill="#fff"/>
        <path id="Path_3531" data-name="Path 3531" d="M271.149,151.977h-3.073l-.053.05V154.6l.053.056h3.073l.055-.056v-2.574Z" transform="translate(-179.375 -151.977)" fill="#fff"/>
        <path id="Path_3532" data-name="Path 3532" d="M311.673,160.59h-5.483l-.054.057,0,13.467.057.052h3.07l.054-.052,0-11.557.021-.02h2.344a1.842,1.842,0,0,1,1.762.831,7.472,7.472,0,0,1,.6,3.645c0,.083-.005,7.1-.005,7.1l.051.052h3.071l.056-.052v-6.749c0-3.162-.627-6.775-5.53-6.775" transform="translate(-198.654 -156.334)" fill="#fff"/>
        <path id="Path_3533" data-name="Path 3533" d="M284.384,160.59c-5.127,0-5.787,3.631-5.787,6.793s.66,6.794,5.785,6.794,5.79-3.634,5.79-6.794-.655-6.793-5.788-6.793m1.952,10.741a2.563,2.563,0,0,1-3.9,0,8.077,8.077,0,0,1-.648-3.947v-.016c0-2.336.29-3.663.934-4.3a2.859,2.859,0,0,1,3.328,0c.643.633.935,1.966.931,4.313a8.063,8.063,0,0,1-.645,3.947" transform="translate(-184.724 -156.334)" fill="#fff"/>
        <path id="Path_3534" data-name="Path 3534" d="M153.414,160.59l-.038.05,4.551,13.348v.109l-2.56,6.611.032.055h2.671l.077-.055,8-20.068-.031-.05H163.2l-.075.05-3.391,8.773h-.04l-2.983-8.773-.074-.05Z" transform="translate(-121.375 -156.334)" fill="#fff"/>
      </g>
      <g id="Group_2542" data-name="Group 2542" transform="translate(0)">
        <path id="Path_3535" data-name="Path 3535" d="M41.6,149.171v18.276l4.135,1.312V153.431c0-.717.32-1.2.838-1.032.674.188.806.849.806,1.567v6.121c2.578,1.245,4.606,0,4.606-3.285,0-3.372-1.186-4.869-4.689-6.069a49.48,49.48,0,0,0-5.7-1.562" transform="translate(-32.107 -149.171)" fill="#fff"/>
        <path id="Path_3536" data-name="Path 3536" d="M51.553,178.466,58.2,176.1c.756-.27.871-.654.258-.854a4.5,4.5,0,0,0-2.476.127l-4.434,1.562v-2.486l.258-.087a15.26,15.26,0,0,1,3.079-.651,13.164,13.164,0,0,1,5.738.683c1.95.617,2.169,1.524,1.674,2.15a4.764,4.764,0,0,1-1.71,1.072l-9.039,3.247Z" transform="translate(-37.142 -161.549)" fill="#fff"/>
        <path id="Path_3537" data-name="Path 3537" d="M24.293,177.148c-2-.564-2.335-1.738-1.424-2.414a9.8,9.8,0,0,1,2.28-1.1l5.927-2.107v2.4l-4.265,1.526c-.756.272-.871.654-.258.854a4.513,4.513,0,0,0,2.478-.126l2.045-.743v2.149c-.13.024-.274.046-.409.07a13.432,13.432,0,0,1-6.375-.514" transform="translate(-22.388 -160.483)" fill="#fff"/>
        <path id="Path_3538" data-name="Path 3538" d="M70.105,187.992a1.218,1.218,0,0,0,0-2.435,1.22,1.22,0,0,0-1.218,1.218,1.22,1.22,0,0,0,1.218,1.217m-1.014-1.217a1.014,1.014,0,0,1,2.028,0,1.016,1.016,0,0,1-1.014,1.012,1.017,1.017,0,0,1-1.014-1.012" transform="translate(-45.912 -167.579)" fill="#fff"/>
        <path id="Path_3539" data-name="Path 3539" d="M71.419,187.868l-.039-.06-.01-.1-.008-.174a.323.323,0,0,0-.046-.179l-.082-.067.1-.1a.375.375,0,0,0,.053-.206.34.34,0,0,0-.2-.336.675.675,0,0,0-.256-.044H70.3v1.355h.239V187.4h.37l.144.022.077.143.01.217.011.106.017.052.006.015h.265v-.079Zm-.268-.874-.059.154-.179.043h-.375v-.382h.4l.132.023a.164.164,0,0,1,.083.163" transform="translate(-46.626 -168.106)" fill="#fff"/>
      </g>
    </g>
  </g>
</svg>
