<svg id="settings" xmlns="http://www.w3.org/2000/svg" width="12.525" height="12.525" viewBox="0 0 12.525 12.525">
  <g id="Group_2538" data-name="Group 2538">
    <path id="Path_3511" data-name="Path 3511" d="M12.247,5.2l-1.465-.36a4.726,4.726,0,0,0-.308-.749l.749-1.248A.365.365,0,0,0,11.17,2.4L10.128,1.355A.365.365,0,0,0,9.68,1.3l-1.248.749a4.726,4.726,0,0,0-.749-.308L7.332.279A.377.377,0,0,0,6.972,0H5.5a.377.377,0,0,0-.36.279L4.792,1.744a4.726,4.726,0,0,0-.749.308L2.8,1.3a.365.365,0,0,0-.448.051L1.306,2.4a.365.365,0,0,0-.051.448L2,4.093a4.726,4.726,0,0,0-.308.749L.279,5.2A.362.362,0,0,0,0,5.553V7.021a.362.362,0,0,0,.279.352l1.416.36A4.726,4.726,0,0,0,2,8.482L1.255,9.729a.365.365,0,0,0,.051.448l1.042,1.042a.365.365,0,0,0,.448.051l1.248-.749a4.727,4.727,0,0,0,.749.308l.352,1.416a.377.377,0,0,0,.36.279H6.972a.377.377,0,0,0,.36-.279l.352-1.416a4.726,4.726,0,0,0,.749-.308l1.248.749a.365.365,0,0,0,.448-.051l1.042-1.042a.365.365,0,0,0,.051-.448l-.749-1.248a4.727,4.727,0,0,0,.308-.749l1.465-.36a.362.362,0,0,0,.279-.352V5.553A.362.362,0,0,0,12.247,5.2ZM6.238,8.122A1.835,1.835,0,1,1,8.073,6.287,1.835,1.835,0,0,1,6.238,8.122Z" fill="#979799"/>
  </g>
</svg>
