<svg xmlns="http://www.w3.org/2000/svg" width="11.781" height="13.481" viewBox="0 0 11.781 13.481">
  <g id="curved-right-black-arrow" transform="translate(-35.18 0)">
    <g id="Group_2539" data-name="Group 2539" transform="translate(35.18 0)">
      <path id="Path_3512" data-name="Path 3512" d="M40.274.032c-.1-.068-.185-.024-.185.1V2.013a.268.268,0,0,1-.219.255,5.647,5.647,0,0,0,.957,11.212h.518a.222.222,0,0,0,.222-.222V12.236a.23.23,0,0,0-.222-.229l-.494-.016a2.523,2.523,0,0,1-.969-4.821.139.139,0,0,1,.206.14V8.993c0,.122.083.167.185.1l.965-.643,4.908-3.272.738-.492a.137.137,0,0,0,0-.246l-.738-.492L41.239.675Z" transform="translate(-35.18 0)" fill="#979799"/>
    </g>
  </g>
</svg>
