<svg xmlns="http://www.w3.org/2000/svg" width="15.278" height="15.279" viewBox="0 0 15.278 15.279">
  <g id="_009---Sports-Gaming" data-name="009---Sports-Gaming" transform="translate(0 0)">
    <path id="Path" d="M18.989.279a6,6,0,0,0-3.615,0l1.808,1.3Z" transform="translate(-11.18 0)" fill="#95a3bc"/>
    <path id="Path-2" data-name="Path" d="M1.117,9.243A5.97,5.97,0,0,0,0,12.676l1.789-1.32Z" transform="translate(0 -6.721)" fill="#95a3bc"/>
    <path id="Path-3" data-name="Path" d="M7.847,6.439l1.95-1.4V3.412L7.65,1.874a6.029,6.029,0,0,0-2.056,1.5l.8,2.523Z" transform="translate(-4.068 -1.363)" fill="#95a3bc"/>
    <path id="Path-4" data-name="Path" d="M2.233,18.5.113,20.064A5.97,5.97,0,0,0,.9,22.481l2.644.015.885-1.181-.749-2.27Z" transform="translate(-0.082 -13.453)" fill="#95a3bc"/>
    <path id="Path-5" data-name="Path" d="M15.18,16.563l.709,2.151h2.3l.709-2.151L17.041,15.23Z" transform="translate(-11.039 -11.075)" fill="#95a3bc"/>
    <path id="Path-6" data-name="Path" d="M28.314,21.61a2.455,2.455,0,0,1,1.54.546h1.893a6.022,6.022,0,0,0,.627-2.138l-2.124-1.555-1.446.555-.749,2.271.246.323Z" transform="translate(-20.402 -13.425)" fill="#95a3bc"/>
    <path id="Path-7" data-name="Path" d="M7.257,37.22l-.7-2.108L4.329,35.1a5.972,5.972,0,0,0,2.928,2.12Z" transform="translate(-3.148 -25.524)" fill="#95a3bc"/>
    <path id="Path-8" data-name="Path" d="M23,5.042l1.949,1.4L26.4,5.882l.8-2.527a6.027,6.027,0,0,0-2.043-1.481L23,3.412Z" transform="translate(-16.725 -1.363)" fill="#95a3bc"/>
    <path id="Path-9" data-name="Path" d="M39.213,12.616a5.967,5.967,0,0,0-1.127-3.433L37.419,11.3Z" transform="translate(-27.21 -6.678)" fill="#95a3bc"/>
    <path id="Shape" d="M25.35,32.546a.273.273,0,0,1-.18-.068A1.908,1.908,0,0,0,22,33.91v3.839a.8.8,0,0,0,1.574.194l.491-1.957a.273.273,0,0,1,.212-.2,1.91,1.91,0,0,0,.893-.441.273.273,0,0,1,.181-.068h2.575a.273.273,0,0,1,.181.068,1.91,1.91,0,0,0,.893.441.273.273,0,0,1,.212.2l.491,1.956a.8.8,0,0,0,1.574-.193V33.91a1.908,1.908,0,0,0-3.17-1.432.273.273,0,0,1-.18.068Zm-.622,1.637h-.546v.546a.273.273,0,0,1-.546,0v-.546h-.546a.273.273,0,0,1,0-.546h.546v-.546a.273.273,0,0,1,.546,0v.546h.546a.273.273,0,0,1,0,.546Zm1.364-.546H25.82a.273.273,0,0,1,0-.546h.273a.273.273,0,0,1,0,.546Zm1.364,0h-.273a.273.273,0,0,1,0-.546h.273a.273.273,0,0,1,0,.546Zm2.728,0h.273a.273.273,0,0,1,0,.546h-.273a.273.273,0,0,1,0-.546Zm-.955-.682a.273.273,0,1,1,.546,0v.273a.273.273,0,1,1-.546,0Zm0,1.637a.273.273,0,1,1,.546,0v.273a.273.273,0,1,1-.546,0Zm-.682-.955h.273a.273.273,0,0,1,0,.546h-.273a.273.273,0,0,1,0-.546Z" transform="translate(-15.998 -23.27)" fill="#95a3bc"/>
    <path id="Path-10" data-name="Path" d="M15.865,33.785v-1.33a2.458,2.458,0,0,1,1.824-2.37L17.623,30H15.2l-.884,1.18.836,2.5A5.984,5.984,0,0,0,15.865,33.785Z" transform="translate(-10.408 -21.815)" fill="#95a3bc"/>
  </g>
</svg>
