<svg xmlns="http://www.w3.org/2000/svg" width="99.823" height="30.403" viewBox="0 0 99.823 30.403">
  <g id="Group_2547" data-name="Group 2547" transform="translate(-1337 -310.798)">
    <g id="Group_2546" data-name="Group 2546" transform="translate(1322.434 295.97)">
      <path id="Path_3540" data-name="Path 3540" d="M549.092,53.987l-5.2,7.067-5.2-7.067H536.3l6.383,8.666-6.99,9.535h2.393l5.81-7.893,5.813,7.893h2.391L545.1,62.651l6.381-8.664Z" transform="translate(-437.706 -32.891)" fill="#95a3bc"/>
      <path id="Path_3541" data-name="Path 3541" d="M254.113,72.191l-6.993-9.536,6.38-8.663h-2.39l-5.2,7.07-5.2-7.07H238.32l6.381,8.663-6.994,9.536H240.1l5.808-7.892,5.811,7.892Z" transform="translate(-187.423 -32.895)" fill="#95a3bc"/>
      <g id="Group_2545" data-name="Group 2545" transform="translate(14.566 14.828)">
        <path id="Path_3542" data-name="Path 3542" d="M338.882,63.341a5.128,5.128,0,0,0-1.194-.759,4.115,4.115,0,0,0,2.188-3.642c0-1.167-.429-4.953-5.918-4.953H326.57v7.847h-2.464c-.316.414-1.043,1.415-1.317,1.826h3.781v8.527l7.389,0c4.007,0,6.493-2.037,6.493-5.317a4.491,4.491,0,0,0-1.57-3.532m-10.268-7.456h5.345c1.449,0,3.873.364,3.873,2.9,0,1.913-1.41,3.054-3.873,3.054h-5.345Zm5.345,14.4h-5.345V63.661h5.345c2.032,0,4.454.56,4.454,3.174,0,3-2.788,3.454-4.454,3.454" transform="translate(-273.452 -47.719)" fill="#95a3bc"/>
        <path id="Path_3543" data-name="Path 3543" d="M447.627,51.364c-5.115,0-8.687,3.91-8.687,9.51s3.572,9.513,8.687,9.513,8.667-3.91,8.667-9.513-3.563-9.51-8.667-9.51m0,17.1c-3.9,0-6.625-3.122-6.625-7.589s2.729-7.585,6.625-7.585,6.6,3.117,6.6,7.585-2.714,7.589-6.6,7.589" transform="translate(-371.011 -45.516)" fill="#95a3bc"/>
        <path id="Path_3544" data-name="Path 3544" d="M62.045,20.158a16.477,16.477,0,0,1,6.22-2.8,7.059,7.059,0,0,1,2.611.218,15.2,15.2,0,0,0-17.754.221c.095-.062,2.626-1.66,8.923,2.358" transform="translate(-46.95 -14.828)" fill="#95a3bc"/>
        <path id="Path_3545" data-name="Path 3545" d="M142.727,50.309a15.163,15.163,0,0,0-5.075-11.337,3.8,3.8,0,0,0-2.746,1.038c-.49.335-2.219,1.945-3.952,3.537,1.1,1.252,2.139,2.641,3.4,4.119,2.167,2.536,5.6,8.522,4.9,12.311a15.145,15.145,0,0,0,3.47-9.668" transform="translate(-112.325 -35.107)" fill="#95a3bc"/>
        <path id="Path_3546" data-name="Path 3546" d="M25.6,42.492q.3-.369.622-.721a39.793,39.793,0,0,0-4.166-3.629c-.656-.283-1.551-.842-2.075-1A15.2,15.2,0,0,0,17.828,58.18c-.674-5.3,5.014-12.266,7.772-15.688" transform="translate(-14.566 -33.569)" fill="#95a3bc"/>
        <path id="Path_3547" data-name="Path 3547" d="M50.973,86.034l-.085-.07-.227.18C48.953,87.466,41.3,95.4,40.251,97.6a4.583,4.583,0,0,0-.549,2.5,15.2,15.2,0,0,0,22.509-.207c.019-.206.081-1.913-2.7-5.211a67.749,67.749,0,0,0-8.537-8.647" transform="translate(-35.661 -74.577)" fill="#95a3bc"/>
      </g>
    </g>
  </g>
</svg>
